<?xml version="1.0" standalone="no"?>
<!DOCTYPE svg PUBLIC "-//W3C//DTD SVG 20010904//EN"
 "http://www.w3.org/TR/2001/REC-SVG-20010904/DTD/svg10.dtd">
<svg version="1.0" xmlns="http://www.w3.org/2000/svg"
 width="514.000000pt" height="514.000000pt" viewBox="0 0 514.000000 514.000000"
 preserveAspectRatio="xMidYMid meet">

<g transform="translate(0.000000,514.000000) scale(0.100000,-0.100000)"
fill="#000000" stroke="none">
<path d="M3335 4810 c-71 -10 -160 -66 -178 -113 -13 -34 -167 -136 -207 -137
-8 -1 -33 -7 -55 -16 -22 -8 -87 -19 -145 -25 -58 -6 -123 -17 -145 -24 -23
-7 -90 -17 -150 -21 -65 -4 -122 -13 -140 -22 -19 -9 -71 -17 -142 -20 -89 -4
-118 -9 -134 -23 -13 -11 -45 -20 -87 -24 -92 -9 -93 -9 -35 -28 65 -21 112
-22 142 -1 18 13 57 18 185 22 88 2 169 9 179 14 10 5 85 13 166 18 81 5 160
14 177 20 16 7 79 14 139 17 123 6 142 -1 129 -52 -6 -23 -113 -125 -132 -125
-4 0 -28 -19 -53 -43 -25 -23 -59 -51 -74 -62 -16 -11 -85 -65 -155 -121 -77
-61 -140 -104 -159 -107 -46 -9 -89 -43 -105 -81 -7 -18 -26 -42 -42 -54 -16
-13 -68 -54 -116 -92 -49 -39 -90 -70 -93 -70 -3 0 -13 -7 -22 -15 -81 -71
-105 -90 -153 -122 -30 -21 -57 -41 -60 -44 -3 -4 -34 -30 -70 -57 -36 -28
-74 -60 -86 -71 -12 -12 -26 -21 -32 -21 -6 0 -16 -9 -22 -20 -6 -11 -15 -20
-21 -20 -6 0 -34 -20 -62 -44 -62 -52 -85 -65 -145 -80 -37 -9 -47 -17 -56
-42 -15 -42 -55 -94 -72 -94 -8 0 -14 -6 -14 -12 0 -7 -25 -28 -55 -46 -29
-19 -70 -49 -89 -68 -19 -19 -38 -34 -42 -34 -3 0 -24 -18 -45 -40 -21 -22
-50 -42 -63 -46 -14 -3 -28 -15 -31 -25 -4 -10 -15 -19 -25 -19 -9 0 -20 -9
-23 -20 -3 -11 -12 -20 -20 -20 -8 0 -17 -9 -20 -20 -4 -15 -14 -20 -42 -20
-28 0 -44 -7 -61 -26 -24 -25 -34 -84 -14 -84 13 0 13 -46 -1 -111 -9 -41 -9
-53 2 -60 25 -15 44 7 41 49 -3 30 3 46 22 69 14 17 26 38 26 47 0 8 9 20 20
26 11 6 20 17 20 25 0 8 9 15 20 15 11 0 20 7 20 15 0 9 8 18 18 22 9 3 24 12
32 20 54 49 72 63 83 63 7 0 18 9 25 20 7 11 21 20 32 20 11 0 20 7 20 15 0 9
8 19 18 22 9 4 31 17 47 30 17 13 40 32 53 41 13 9 32 25 43 35 11 10 35 17
59 17 46 0 68 16 97 71 20 39 75 99 90 99 5 0 16 9 26 20 9 11 23 20 31 20 8
0 35 19 60 43 25 23 54 49 63 57 26 22 97 70 105 70 4 0 24 17 45 38 20 20 58
51 83 67 25 17 52 36 60 43 8 7 35 30 60 52 25 22 48 40 52 40 3 0 31 20 61
45 31 25 59 45 62 45 4 0 17 9 29 20 85 77 222 174 261 184 41 10 95 53 107
85 9 26 80 88 163 143 25 16 45 33 45 37 0 4 21 22 48 39 53 34 86 59 112 83
30 28 103 67 140 74 19 4 40 11 46 16 21 17 118 14 179 -5 87 -27 155 -60 155
-76 0 -5 9 -12 20 -15 18 -6 105 -106 165 -191 21 -29 58 -74 88 -109 10 -11
24 -27 31 -35 7 -8 19 -26 26 -40 7 -14 29 -41 49 -61 20 -21 45 -49 56 -63
11 -14 30 -37 43 -51 12 -15 22 -30 22 -35 0 -5 20 -28 45 -52 25 -24 45 -48
45 -55 0 -7 6 -16 13 -20 8 -4 18 -15 23 -25 8 -15 13 -14 54 10 39 23 42 27
23 30 -14 2 -23 10 -23 22 0 10 -9 20 -20 23 -12 3 -20 14 -20 26 0 12 -6 21
-15 21 -9 0 -20 11 -25 25 -5 14 -14 25 -19 25 -5 0 -15 15 -21 34 -6 19 -17
37 -25 40 -8 3 -15 12 -15 20 0 9 -9 20 -20 26 -11 6 -20 16 -20 23 0 7 -9 24
-19 37 -11 14 -46 59 -78 100 -32 41 -71 95 -88 120 -16 25 -37 52 -47 60 -25
23 -87 109 -103 144 -8 17 -19 38 -24 46 -27 42 -44 132 -38 208 8 99 -7 159
-55 215 -60 72 -137 101 -233 87z"/>
<path d="M2958 2907 l-48 -10 0 -114 c0 -114 0 -114 -22 -106 -41 15 -180 9
-214 -9 -53 -29 -112 -96 -131 -151 -27 -78 -24 -207 6 -270 57 -117 201 -170
319 -117 34 16 42 16 42 5 0 -12 15 -15 65 -15 l65 0 0 400 c0 451 9 407 -82
387z m-70 -343 c21 -14 22 -22 22 -163 0 -171 -1 -172 -83 -178 -64 -5 -112
17 -144 66 -19 27 -23 48 -23 105 0 84 19 130 69 163 41 28 124 31 159 7z"/>
<path d="M4143 2907 l-43 -10 0 -115 c0 -114 0 -114 -22 -107 -47 15 -140 17
-183 5 -54 -15 -128 -78 -156 -131 -60 -119 -31 -319 57 -388 68 -53 187 -66
263 -28 41 21 41 21 41 2 0 -12 13 -15 60 -15 l60 0 0 400 c0 449 8 408 -77
387z m-73 -342 l30 -16 0 -144 c0 -155 -4 -168 -56 -181 -40 -10 -114 2 -143
23 -38 28 -55 69 -59 143 -6 116 54 190 156 190 24 0 56 -7 72 -15z"/>
<path d="M1446 2880 c-11 -3 -23 -15 -26 -26 -12 -32 0 -345 15 -409 8 -33 19
-145 24 -250 6 -104 15 -206 21 -225 15 -53 12 -84 -11 -114 -18 -23 -21 -36
-16 -83 4 -40 11 -59 26 -70 16 -11 21 -25 21 -61 0 -26 7 -82 15 -125 19
-100 20 -290 2 -305 -16 -14 -77 20 -77 43 0 9 -6 18 -14 21 -8 3 -20 20 -27
37 -7 18 -19 36 -26 40 -7 4 -13 13 -13 19 0 6 -17 36 -37 66 -64 93 -73 106
-88 138 -8 17 -21 34 -30 37 -8 4 -15 16 -15 27 0 11 -8 28 -17 38 -10 9 -32
40 -50 67 -18 28 -39 57 -48 66 -8 9 -15 19 -15 23 0 4 -9 19 -20 33 -11 14
-20 32 -20 41 0 8 -10 25 -22 37 -44 43 -68 77 -68 95 0 23 -40 120 -50 120
-4 0 -15 18 -24 40 -11 27 -22 40 -35 40 -11 0 -22 8 -24 18 -3 9 -5 2 -6 -16
-1 -25 -6 -35 -22 -39 -16 -5 -19 -11 -14 -32 3 -14 15 -32 25 -40 11 -7 20
-19 20 -26 0 -7 7 -15 14 -18 8 -3 18 -22 22 -42 3 -20 12 -39 19 -42 7 -2 16
-16 20 -30 3 -15 15 -38 26 -51 10 -14 19 -31 19 -38 0 -8 4 -14 10 -14 9 0
20 -17 86 -138 27 -51 48 -85 107 -171 9 -14 24 -41 32 -59 9 -18 33 -58 55
-90 22 -31 40 -60 40 -64 0 -4 18 -34 40 -65 22 -32 40 -62 40 -67 0 -5 6 -17
13 -25 8 -9 24 -56 36 -106 20 -84 21 -93 6 -140 -8 -27 -15 -74 -15 -103 0
-130 126 -253 259 -252 36 1 122 26 151 45 81 53 123 65 222 65 64 0 108 -5
126 -14 15 -7 57 -17 94 -20 36 -4 74 -14 85 -21 12 -10 46 -14 100 -15 71 0
84 3 93 19 15 30 14 31 -40 31 -37 0 -54 5 -67 20 -11 12 -35 21 -72 26 -31 3
-67 13 -80 21 -13 8 -55 19 -93 24 -83 10 -143 48 -132 83 10 34 24 45 63 51
20 3 59 14 86 24 71 26 151 43 215 45 102 4 111 6 135 32 24 26 153 74 198 74
12 0 35 7 51 15 15 8 57 20 93 25 36 6 74 17 86 24 12 8 45 17 72 21 28 4 56
12 63 17 6 6 38 16 70 23 31 8 75 20 97 29 22 8 55 15 73 16 17 0 49 9 69 20
21 11 56 20 78 20 22 0 50 7 63 15 12 9 50 21 84 27 34 6 68 17 75 24 7 7 34
16 58 20 25 3 62 15 82 25 21 11 55 19 76 19 21 0 51 7 66 15 19 9 77 17 165
21 132 7 135 8 115 25 -12 10 -26 20 -32 22 -19 6 -14 87 6 98 9 6 17 19 17
29 0 11 7 20 15 20 8 0 22 9 32 19 10 11 43 26 73 34 l55 15 -61 1 c-54 1 -62
-2 -67 -19 -3 -12 -14 -20 -26 -20 -12 0 -21 -6 -21 -15 0 -8 -7 -15 -15 -15
-8 0 -19 -9 -25 -19 -5 -11 -25 -24 -44 -31 -19 -6 -37 -17 -39 -25 -3 -7 -21
-16 -39 -20 -18 -4 -37 -14 -43 -21 -5 -8 -35 -17 -65 -21 -30 -3 -65 -13 -77
-20 -12 -8 -51 -17 -85 -20 -35 -4 -73 -12 -85 -20 -12 -8 -48 -17 -80 -20
-32 -3 -76 -14 -99 -24 -22 -10 -53 -19 -68 -19 -15 0 -40 -7 -56 -15 -16 -9
-51 -18 -77 -21 -27 -3 -69 -14 -95 -25 -26 -10 -60 -19 -76 -19 -17 0 -49 -9
-73 -20 -24 -11 -64 -20 -89 -20 -25 0 -55 -7 -67 -15 -12 -9 -47 -20 -77 -26
-31 -5 -68 -16 -83 -24 -16 -8 -38 -15 -51 -15 -12 0 -48 -9 -79 -20 -32 -11
-68 -20 -80 -20 -13 0 -49 -9 -80 -20 -40 -14 -81 -19 -139 -19 -63 0 -91 -4
-114 -17 -16 -10 -30 -22 -30 -26 0 -17 -61 -37 -150 -50 -158 -23 -265 5
-332 87 -42 52 -77 137 -98 235 -25 119 -26 187 -3 212 20 22 19 104 0 127
-39 46 -56 118 -66 277 -6 87 -17 191 -25 229 -8 39 -17 141 -20 229 -5 116
-11 164 -22 181 -11 16 -17 64 -22 158 -7 127 -8 134 -26 127z"/>
<path d="M4694 2693 c-19 -24 -22 -26 -53 -15 -46 16 -154 15 -194 -1 -82 -35
-128 -104 -128 -192 0 -62 19 -110 61 -150 l28 -27 -34 -30 c-26 -23 -34 -38
-34 -65 0 -78 38 -96 200 -91 108 3 112 2 131 -21 17 -21 18 -26 6 -45 -34
-52 -138 -59 -223 -16 l-59 30 -18 -23 c-10 -12 -26 -34 -37 -49 l-20 -26 32
-20 c116 -71 299 -69 393 3 51 38 68 78 63 142 -4 41 -11 60 -33 83 -43 44
-83 54 -201 46 -106 -7 -128 -1 -98 28 17 18 21 19 80 16 132 -5 223 80 224
208 0 29 -6 68 -14 87 -14 34 -14 35 15 56 l31 22 -38 38 c-21 22 -43 39 -49
39 -6 0 -20 -12 -31 -27z m-106 -114 c61 -21 80 -123 32 -174 -43 -46 -122
-38 -153 14 -35 60 -14 137 43 160 33 13 41 13 78 0z"/>
<path d="M2033 2677 c-18 -7 -34 -14 -35 -17 -1 -3 4 -26 10 -52 11 -44 14
-47 35 -39 23 9 89 15 140 12 33 -1 87 -50 87 -78 0 -15 -7 -18 -49 -15 -114
8 -232 -42 -266 -114 -27 -58 -25 -144 6 -188 55 -81 194 -101 283 -41 l35 24
30 -29 c33 -33 83 -40 116 -16 18 13 18 14 0 52 -15 31 -20 72 -25 204 -7 174
-18 218 -67 262 -49 44 -220 64 -300 35z m237 -343 c0 -48 -4 -60 -28 -84 -55
-54 -148 -49 -172 10 -30 73 31 129 143 130 l57 0 0 -56z"/>
<path d="M3320 2670 c-117 -40 -188 -159 -178 -299 12 -164 117 -261 282 -261
65 0 148 20 180 43 18 13 17 15 -4 58 -12 24 -23 45 -24 46 -1 2 -20 -6 -41
-17 -54 -28 -139 -27 -185 1 -46 28 -57 45 -69 101 -21 95 9 182 77 221 41 24
127 25 170 3 17 -9 33 -16 36 -16 2 0 16 21 30 46 l25 45 -52 25 c-66 30 -166
32 -247 4z"/>
<path d="M550 2310 c0 -5 12 -10 28 -9 24 0 25 1 7 9 -27 12 -35 12 -35 0z"/>
<path d="M4455 1670 c3 -5 8 -10 11 -10 2 0 4 5 4 10 0 6 -5 10 -11 10 -5 0
-7 -4 -4 -10z"/>
</g>
</svg>
